M48
; DRILL file {KiCad 9.0.6} date 2025-12-11T22:35:08+0300
; FORMAT={-:-/ absolute / metric / decimal}
; #@! TF.CreationDate,2025-12-11T22:35:08+03:00
; #@! TF.GenerationSoftware,Kicad,Pcbnew,9.0.6
; #@! TF.FileFunction,Plated,1,2,PTH
FMAT,2
METRIC
; #@! TA.AperFunction,Plated,PTH,ComponentDrill
T1C0.750
; #@! TA.AperFunction,Plated,PTH,ComponentDrill
T2C0.800
; #@! TA.AperFunction,Plated,PTH,ComponentDrill
T3C0.813
; #@! TA.AperFunction,Plated,PTH,ComponentDrill
T4C1.000
; #@! TA.AperFunction,Plated,PTH,ComponentDrill
T5C1.100
; #@! TA.AperFunction,Plated,PTH,ComponentDrill
T6C1.300
%
G90
G05
T1
X128.15Y-126.61
X128.15Y-128.34
X128.15Y-130.11
X128.44Y-115.48
X128.44Y-117.25
X128.44Y-118.98
T2
X118.88Y-65.32
X118.88Y-82.92
X126.5Y-65.32
X126.5Y-82.92
X129.06Y-133.54
X130.88Y-65.32
X130.88Y-82.82
X131.215Y-122.6
X133.215Y-122.6
X136.68Y-133.54
X138.5Y-65.32
X138.5Y-82.82
X139.35Y-133.56
X142.38Y-65.32
X142.38Y-82.72
X146.97Y-133.56
X149.86Y-116.31
X149.86Y-123.93
X150.0Y-65.32
X150.0Y-82.72
X151.07Y-126.32
X151.07Y-133.94
X153.58Y-65.28
X153.58Y-82.62
X158.14Y-134.29
X158.14Y-141.91
X161.2Y-65.28
X161.2Y-82.62
X162.94Y-134.4
X162.94Y-142.02
X164.79Y-65.28
X164.79Y-82.58
X165.97Y-130.6
X171.18Y-118.7
X171.18Y-121.2
X172.2Y-136.61
X172.2Y-139.11
X172.41Y-65.28
X172.41Y-82.58
X175.79Y-65.28
X175.79Y-82.58
X176.13Y-130.6
X179.13Y-147.71
X181.13Y-147.71
X183.13Y-147.71
X183.41Y-65.28
X183.41Y-82.58
X185.13Y-147.71
T3
X136.97Y-119.6
X136.97Y-127.22
X139.51Y-119.6
X139.51Y-127.22
X142.05Y-119.6
X142.05Y-127.22
X144.59Y-119.6
X144.59Y-127.22
T4
X124.32Y-71.23
X124.32Y-76.73
X126.86Y-71.23
X126.86Y-76.73
X134.06Y-92.84
X134.06Y-108.08
X135.31Y-71.23
X135.31Y-76.73
X136.6Y-92.84
X136.6Y-108.08
X137.85Y-71.23
X137.85Y-76.73
X139.14Y-92.84
X139.14Y-108.08
X141.68Y-92.84
X141.68Y-108.08
X144.22Y-92.84
X144.22Y-108.08
X146.32Y-71.23
X146.32Y-76.73
X146.76Y-92.84
X146.76Y-108.08
X148.86Y-71.23
X148.86Y-76.73
X149.3Y-92.84
X149.3Y-108.08
X151.84Y-92.84
X151.84Y-108.08
X154.38Y-92.84
X154.38Y-108.08
X156.92Y-92.84
X156.92Y-108.08
X157.32Y-71.23
X157.32Y-76.73
X159.46Y-92.84
X159.46Y-108.08
X159.86Y-71.23
X159.86Y-76.73
X162.0Y-92.84
X162.0Y-108.08
X164.54Y-92.84
X164.54Y-108.08
X167.08Y-92.84
X167.08Y-108.08
X168.32Y-71.23
X168.32Y-76.73
X169.62Y-92.84
X169.62Y-108.08
X170.86Y-71.23
X170.86Y-76.73
X179.32Y-71.23
X179.32Y-76.73
X181.86Y-71.23
X181.86Y-76.73
T5
X164.75Y-146.71
X166.75Y-146.71
X168.85Y-146.71
X171.0Y-146.71
X173.0Y-146.71
T6
X117.955Y-124.295
X117.955Y-129.375
X117.955Y-134.455
X117.955Y-139.535
X117.98Y-107.215
X117.98Y-112.295
X117.98Y-117.375
X118.047Y-89.925
X118.047Y-95.005
X118.047Y-100.085
X127.955Y-144.713
X133.035Y-144.713
X138.115Y-144.713
X146.95Y-144.743
X151.95Y-144.743
X159.08Y-115.33
X159.08Y-130.57
X187.002Y-131.41
X187.002Y-136.41
X187.05Y-92.37
X187.05Y-97.45
X187.05Y-102.53
X187.05Y-107.61
X187.072Y-114.405
X187.072Y-119.485
X187.072Y-124.565
M30
